<svg version="1" xmlns="http://www.w3.org/2000/svg" width="262.667" height="262.667" viewBox="0 0 197.000000 197.000000"><path d="M37.7 35.7c-.4.3-.7 2.6-.7 4.9 0 4.8-.3 4.6 9.5 6.2l5 .7.3 49.8.2 49.7-8 4c-8 4-8.5 4.6-7.4 8.7l.6 2.3H97v-5c0-4.8-.1-4.9-3.7-5.9-2.1-.6-5.2-1.1-7-1.1-1.7 0-3.5-.4-3.8-1-.3-.5-.7-8.4-.8-17.5l-.1-16.5 3.4-3.5c1.9-1.9 3.7-3.5 4.1-3.5.4 0 4.2 4.8 8.5 10.7 16.1 22.5 17.9 25 24.3 34l6.5 9.3h38.7l-.3-5.3-.3-5.2-5.5-1.1c-5.3-1-5.7-1.3-11.5-9-11.1-14.6-37.2-49.9-38.9-52.5l-1.7-2.6 18-18.9c17.2-18.2 18.2-19 25.1-21.8 7.6-3 8.6-4.1 7.6-8.1L159 35h-46.7l-.7 4.1c-.8 4.7.5 6.9 3.9 6.9 3.3 0 5.5 1 5.5 2.6 0 .7-3.7 5.3-8.3 10.1-4.6 4.8-13 13.7-18.6 19.8-5.7 6-10.6 11.1-11.1 11.3-.4.2-.9-1-1.2-2.5-.7-5.2 0-37.7.8-38 .5-.2 3.8-1.8 7.4-3.6 6.1-3.2 6.5-3.6 6.5-6.8v-3.4l-29.1-.3c-16-.1-29.3.1-29.7.5z"/></svg>